HIERARCHY
ROOT root
{
	OFFSET	0	13.1	24.9
	CHANNELS 6  Xposition Yposition Zposition Xrotation Yrotation Zrotation
	JOINT spine_1
	{
		OFFSET	0	9.99999	0
		CHANNELS 3  Xrotation Yrotation Zrotation
		JOINT spine_2
		{
			OFFSET	0	112	-10
			CHANNELS 3  Xrotation Yrotation Zrotation
			JOINT spine_3
			{
				OFFSET	0	206.5	19.3
				CHANNELS 3  Xrotation Yrotation Zrotation
				JOINT spine_4
				{
					OFFSET	0	110.4	14.6
					CHANNELS 3  Xrotation Yrotation Zrotation
					JOINT neck_1
					{
						OFFSET	0	71.8	-50.3
						CHANNELS 3  Xrotation Yrotation Zrotation
						JOINT neck_2
						{
							OFFSET	0	86.2	-25.8
							CHANNELS 3  Xrotation Yrotation Zrotation
							JOINT head_ee
							{
								OFFSET	0	179.8	-8.7
								CHANNELS 3  Xrotation Yrotation Zrotation
								End Site
								{
									OFFSET	1	0	0
								}
							}
						}
					}
					JOINT left_clavicle
					{
						OFFSET	-43.2	22.4	-70.8
						CHANNELS 3  Xrotation Yrotation Zrotation
						JOINT left_shoulder
						{
							OFFSET	-93.9	-5.79999	48.7
							CHANNELS 3  Xrotation Yrotation Zrotation
							JOINT left_elbow
							{
								OFFSET	-291.4	-30.8	15.2
								CHANNELS 3  Xrotation Yrotation Zrotation
								JOINT left_lowarm_twist
								{
									OFFSET	-110.7	-3.89999	13.6
									CHANNELS 3  Xrotation Yrotation Zrotation
									JOINT left_hand
									{
										OFFSET	-110.7	-3.89999	13.6
										CHANNELS 3  Xrotation Yrotation Zrotation
										JOINT left_ee
										{
											OFFSET	-80.8	-5.10001	12.1
											CHANNELS 3  Xrotation Yrotation Zrotation
											End Site
											{
												OFFSET	1	0	0
											}
										}
									}
								}
							}
						}
					}
					JOINT right_clavicle
					{
						OFFSET	43.2	22.4	-70.8
						CHANNELS 3  Xrotation Yrotation Zrotation
						JOINT right_shoulder
						{
							OFFSET	93.9	-5.79999	48.7
							CHANNELS 3  Xrotation Yrotation Zrotation
							JOINT right_elbow
							{
								OFFSET	291.4	-30.8	15.2
								CHANNELS 3  Xrotation Yrotation Zrotation
								JOINT right_lowarm_twist
								{
									OFFSET	110.7	-3.89999	13.6
									CHANNELS 3  Xrotation Yrotation Zrotation
									JOINT right_hand
									{
										OFFSET	110.7	-3.89999	13.6
										CHANNELS 3  Xrotation Yrotation Zrotation
										JOINT right_ee
										{
											OFFSET	80.8	-5.10001	12.1
											CHANNELS 3  Xrotation Yrotation Zrotation
											End Site
											{
												OFFSET	1	0	0
											}
										}
									}
								}
							}
						}
					}
				}
			}
		}
	}
	JOINT left_hip
	{
		OFFSET	-82.8	-127.5	0.300001
		CHANNELS 3  Xrotation Yrotation Zrotation
		JOINT left_knee
		{
			OFFSET	-28.2	-396.7	2.2
			CHANNELS 3  Xrotation Yrotation Zrotation
			JOINT left_ankle
			{
				OFFSET	-11.7	-411.3	35.4
				CHANNELS 3  Xrotation Yrotation Zrotation
				JOINT left_toes
				{
					OFFSET	0	-60	-88.6
					CHANNELS 3  Xrotation Yrotation Zrotation
					JOINT left_foot_ee
					{
						OFFSET	-22.5	-16.5	-42.2
						CHANNELS 3  Xrotation Yrotation Zrotation
						End Site
						{
							OFFSET	1	0	0
						}
					}
				}
			}
		}
	}
	JOINT right_hip
	{
		OFFSET	82.8	-127.5	0.300001
		CHANNELS 3  Xrotation Yrotation Zrotation
		JOINT right_knee
		{
			OFFSET	28.2	-396.7	2.2
			CHANNELS 3  Xrotation Yrotation Zrotation
			JOINT right_ankle
			{
				OFFSET	11.7	-411.3	35.4
				CHANNELS 3  Xrotation Yrotation Zrotation
				JOINT right_toes
				{
					OFFSET	0	-60	-88.6
					CHANNELS 3  Xrotation Yrotation Zrotation
					JOINT right_foot_ee
					{
						OFFSET	22.5	-16.5	-42.2
						CHANNELS 3  Xrotation Yrotation Zrotation
						End Site
						{
							OFFSET	1	0	0
						}
					}
				}
			}
		}
	}
}
MOTION
Frames: 6
Frame Time: 0.02
3177.02 653.055 -1669.29 -7.76879863185 60.6515335037 4.64702335699 0.718904 1.0582 3.29265 0.724537 0.846657 3.35322 0.776745 0.170551 3.45413 0.760807 0.713612 3.38399 -13.2368 6.00724 -7.40028 -13.2507 16.0402 -5.25091 -0.0 0.0 -0.0 -2.96637 22.4188 -1.55486 -19.3965 -18.9424 72.2162 0.235226 -6.64652 0.0136589 -45.5326 -3.55784 4.42911 1.55521 10.9504 14.6036 -0.0 0.0 -0.0 12.6941 21.3969 -25.428 -6.67263 38.0984 -42.4853 3.21899 57.8945 -1.78077 10.2036 -0.24623 1.27844 -4.83695 -5.04941 31.2712 0.0 0.0 0.0 34.6617 6.34974 -7.12003 -2.70791 0.101985 0.403023 -20.965 14.0143 3.16627 4.70752 -0.0 -0.0 -0.0 0.0 -0.0 -5.23908 1.09035 9.73368 -18.5537 -0.310046 -2.81792 37.123 31.1084 5.70524 -12.7903 0.0 0.0 0.0 0.0 0.0 
3090.05724387 652.641 -1659.91573057 -6.35676956591 58.6380321734 1.58410239148 0.271626 1.31274 3.46227 0.277634 1.0899 3.53866 0.349033 0.345524 3.68637 0.331259 0.923006 3.58576 -10.2185 6.90146 -7.21946 -10.1612 17.843 -5.29912 -0.0 0.0 -0.0 -2.62428 23.1446 -0.938421 -19.3274 -18.8304 72.8452 0.321327 -9.04444 0.0254145 -45.2463 -3.52559 4.41148 1.15866 8.6563 11.1481 -0.0 0.0 -0.0 12.5647 20.3801 -25.2076 -7.98451 35.9959 -43.8645 3.19322 57.687 -1.75896 10.0715 -0.244506 1.26166 -4.76874 -5.07028 30.7297 0.0 0.0 0.0 35.4529 6.92726 -3.19763 -16.7596 0.320144 2.54284 -20.5154 18.4117 3.12952 7.78684 -0.0 -0.0 -0.0 0.0 -0.0 -9.97574 1.98036 14.6927 -20.5253 -0.289023 -3.1197 36.3482 30.4772 5.5777 -13.4021 0.0 0.0 0.0 0.0 0.0 
3064.49095942 655.956 -1657.78881323 -6.66672664062 58.9992776804 1.53339057745 0.143939 1.02523 3.44065 0.150164 0.804356 3.49882 0.203212 0.0643727 3.5894 0.185788 0.630086 3.53432 -9.66939 7.93214 -5.88286 -9.65548 18.9035 -3.81585 -0.0 0.0 -0.0 -2.20593 23.029 -0.380475 -18.8357 -18.8009 72.4389 0.365062 -10.2508 0.0327442 -44.2226 -3.41101 4.34717 1.14306 7.11763 10.4625 -0.0 0.0 -0.0 12.5964 20.6487 -25.2608 -8.52912 35.3027 -44.2714 3.18272 57.6018 -1.7501 9.11023 -0.230792 1.13964 -4.45514 -4.9458 28.415 0.0 0.0 0.0 35.8124 4.0509 0.0127631 -20.6764 0.286984 3.14279 -23.1538 24.0506 3.61236 9.88994 -0.0 -0.0 -0.0 0.0 -0.0 -11.4128 3.14319 15.8742 -19.5657 -0.300553 -2.97291 36.5026 27.1126 5.37772 -14.8732 0.0 0.0 0.0 0.0 0.0 
3064.59732719 655.956 -1656.79180373 -6.76657750556 59.50367063 1.64957351374 0.143939 1.02523 3.44065 0.150164 0.804356 3.49882 0.203212 0.0643727 3.5894 0.185788 0.630086 3.53432 -9.66939 7.93214 -5.88286 -9.65548 18.9035 -3.81585 -0.0 0.0 -0.0 -2.20593 23.029 -0.380475 -18.8357 -18.8009 72.4389 0.365062 -10.2508 0.0327442 -44.2226 -3.41101 4.34717 1.14306 7.11763 10.4625 -0.0 0.0 -0.0 12.5964 20.6487 -25.2608 -8.52912 35.3027 -44.2714 3.18272 57.6018 -1.7501 9.11023 -0.230792 1.13964 -4.45514 -4.9458 28.415 0.0 0.0 0.0 35.8124 4.0509 0.0127631 -20.6764 0.286984 3.14279 -23.1538 24.0506 3.61236 9.88994 -0.0 -0.0 -0.0 0.0 -0.0 -11.4128 3.14319 15.8742 -19.5657 -0.300553 -2.97291 36.5026 27.1126 5.37772 -14.8732 0.0 0.0 0.0 0.0 0.0 
3023.61299721 656.398 -1647.4161627 -5.79767535394 60.378611077 -0.418513599405 -0.136357 0.679192 3.85275 -0.128205 0.432846 3.88808 -0.0940394 -0.400669 3.89152 -0.115101 0.21847 3.90597 -9.34701 10.1504 -3.63357 -9.41613 21.5406 -1.10435 -0.0 0.0 -0.0 -1.7643 21.8381 0.0383824 -16.4639 -19.4055 71.6156 0.425355 -11.8989 0.0443273 -42.128 -3.18026 4.20927 1.36436 4.36386 10.8797 -0.0 0.0 -0.0 12.4175 24.1486 -24.5366 -10.5413 33.6906 -44.9865 3.14427 57.2862 -1.71768 8.09952 -0.214168 1.0116 -3.60665 -4.15318 22.6402 0.0 0.0 0.0 35.8324 -2.83926 3.33575 -25.3927 0.192788 3.86019 -25.0509 31.0163 4.07505 13.6767 -0.0 -0.0 -0.0 0.0 -0.0 -13.5495 5.41643 17.9115 -18.969 -0.306482 -2.88154 34.6814 19.3603 4.81406 -17.6168 0.0 0.0 0.0 0.0 0.0 
2984.87999493 668.494 -1641.63604217 -4.87957793621 62.8190493494 -0.990932570301 -0.394103 0.339923 4.0988 -0.384762 0.0786419 4.11209 -0.373871 -0.814982 4.03142 -0.396505 -0.168628 4.10939 -10.3444 10.4538 -2.57407 -10.4893 21.426 0.209245 -0.0 0.0 -0.0 -1.30366 19.841 0.395087 -12.169 -21.003 70.7452 0.429255 -12.0048 0.0451348 -41.4191 -3.10334 4.16071 1.49589 2.68834 11.1124 -0.0 0.0 -0.0 11.9379 26.013 -23.2378 -14.0017 31.355 -46.1015 2.79622 54.163 -1.42997 7.87094 -0.210095 0.982688 -2.71991 -4.12918 16.4269 0.0 0.0 0.0 34.5217 -6.85781 6.46865 -27.8352 0.120875 4.22811 -24.3763 30.2316 3.94338 17.3943 -0.0 -0.0 -0.0 0.0 -0.0 -9.83494 12.486 18.2969 -24.0644 -0.225291 -3.65894 31.9951 10.966 4.2809 -20.2793 0.0 0.0 0.0 0.0 0.0 
